<svg width="0" height="0" class="hidden">
    <symbol xmlns="http://www.w3.org/2000/svg" viewBox="0 0 16 16" id="notification">
        <path d="M9.41536 1.75506C9.45733 1.769 9.50036 1.737 9.49836 1.69281C9.45211 0.678094 8.63992 0 7.75042 0C6.85551 0 6.04879 0.686812 6.00251 1.69344C6.00048 1.73763 6.04354 1.76962 6.08548 1.75569C7.11095 1.41447 8.40771 1.42 9.41536 1.75506Z" fill="#929AAC"></path>
        <path d="M14.0546 11.7528C13.2258 11.0425 12.7505 10.0091 12.7505 8.9178V8.4963C12.7505 8.45661 12.7141 8.42749 12.6752 8.4353C10.5525 8.8604 8.50053 7.22577 8.50053 4.99999C8.50053 3.48883 9.32884 2.67964 9.59625 2.4502C9.63175 2.41974 9.62253 2.3622 9.57906 2.34495C6.34021 1.05989 2.75053 3.44746 2.75053 6.99999V8.9178C2.75053 9.98702 2.29125 11.0291 1.44646 11.7528C1.30709 11.8722 1.19334 12.0231 1.1174 12.1887C0.72859 13.0338 1.34943 14 2.27803 14H13.2007C13.8746 14 14.4495 13.4867 14.4973 12.8145C14.5274 12.3901 14.3466 12.0029 14.0546 11.7528Z" fill="#929AAC"></path>
        <path d="M7.75046 16C8.67834 16 9.47674 15.4355 9.82024 14.6318C9.84689 14.5694 9.80236 14.5 9.73452 14.5H5.7664C5.69856 14.5 5.65403 14.5694 5.68069 14.6318C6.02419 15.4355 6.82262 16 7.75046 16Z" fill="#929AAC"></path>
        <path id="new" d="M12.0005 8C13.6652 8 15.0005 6.65219 15.0005 5C15.0005 3.34594 13.6546 2 12.0005 2C10.3371 2 9.00049 3.35091 9.00049 5C9.00049 6.65406 10.3464 8 12.0005 8Z" fill="#929AAC"></path>
    </symbol>
</svg>